<svg xmlns="http://www.w3.org/2000/svg" viewBox="0 0 36 36"><path style="opacity:0.5; fill:#091e42; fill-rule:evenodd;" d="M31.18,23.64V21.75a5.31,5.31,0,0,0-5.3-5.2H19.45V12.36a5.93,5.93,0,0,1-2.9,0v4.19H10a5.31,5.31,0,0,0-5.2,5.31v1.78a6.33,6.33,0,0,1,1.45-.18,6.17,6.17,0,0,1,1.44.18V21.78a2.4,2.4,0,0,1,2.41-2.33H26a2.41,2.41,0,0,1,2.34,2.41v1.78a6.17,6.17,0,0,1,1.44-.18A6.33,6.33,0,0,1,31.18,23.64Z"/><path style="fill: #091e42; fill-rule:evenodd;" d="M7.71,23.64a6.17,6.17,0,0,0-1.44-.18,6.33,6.33,0,0,0-1.45.18,6.28,6.28,0,1,0,2.89,0Z"/><path style="fill: #091e42; fill-rule:evenodd;" d="M31.18,23.64a6.33,6.33,0,0,0-1.45-.18,6.17,6.17,0,0,0-1.44.18,6.27,6.27,0,1,0,2.89,0Z"/><path style="fill: #091e42; fill-rule:evenodd;" d="M18,0a6.26,6.26,0,1,0,6.27,6.27A6.27,6.27,0,0,0,18,0Z"/></svg>