<svg xmlns="http://www.w3.org/2000/svg" viewBox="0 0 36 36"><rect style="fill: #091e42; fill-rule:evenodd;" x="22.64" y="5.58" height="9.94" transform="translate(-0.83 19.1) rotate(-45)"/><polygon style="fill:#091e42; fill-rule:evenodd;" points="26.16 14.06 26.16 14.06 19.13 14.06 19.13 7.03 19.13 7.03 19.13 14.06 26.16 14.06"/><path style="opacity:0.5; fill:#091e42; fill-rule:evenodd;" d="M26.16,7V0H13.22A3.37,3.37,0,0,0,9.84,3.37V7h9.28l7,7h0V29h3.65a3.38,3.38,0,0,0,3.38-3.38V7Z"/><polygon style="fill:#091e42; fill-rule:evenodd;" points="33.19 7.03 26.16 0 26.16 7.03 33.19 7.03"/><path style="fill: #091e42; fill-rule:evenodd;" d="M19.12,14.06V7H6.19a3.38,3.38,0,0,0-3.38,3.38V32.62A3.38,3.38,0,0,0,6.19,36H22.78a3.38,3.38,0,0,0,3.38-3.38V14.06ZM14.68,26.15H8.44a1.27,1.27,0,0,1-.06-2.53h6.24a1.26,1.26,0,0,1,.06,2.52Zm6.19-6.46H8.44a1.27,1.27,0,0,1-.06-2.53H20.81a1.27,1.27,0,0,1,.06,2.53Z"/></svg>